HIERARCHY
ROOT Hips
{
  OFFSET 1.167 43.715 -232.587
  CHANNELS 6 Xposition Yposition Zposition Zrotation Xrotation Yrotation
  JOINT LeftUpLeg
  {
    OFFSET 7.622 -5.328 4.658
    CHANNELS 6 Xposition Yposition Zposition Zrotation Xrotation Yrotation
    JOINT LeftLeg
    {
      OFFSET -0.000 -46.913 0.000
      CHANNELS 6 Xposition Yposition Zposition Zrotation Xrotation Yrotation
      JOINT LeftFoot
      {
        OFFSET -0.000 -39.317 -0.000
        CHANNELS 6 Xposition Yposition Zposition Zrotation Xrotation Yrotation
        End Site
        {
          OFFSET 0.000 -8.946 5.165
        }
      }
    }
  }
  JOINT RightUpLeg
  {
    OFFSET -7.629 -5.799 4.786
    CHANNELS 6 Xposition Yposition Zposition Zrotation Xrotation Yrotation
    JOINT RightLeg
    {
      OFFSET 0.000 -47.605 0.000
      CHANNELS 6 Xposition Yposition Zposition Zrotation Xrotation Yrotation
      JOINT RightFoot
      {
        OFFSET -0.000 -38.770 -0.000
        CHANNELS 6 Xposition Yposition Zposition Zrotation Xrotation Yrotation
        End Site
        {
          OFFSET 0.000 -8.370 4.832
        }
      }
    }
  }
  JOINT Spine
  {
    OFFSET 0.000 4.506 -4.506
    CHANNELS 6 Xposition Yposition Zposition Zrotation Xrotation Yrotation
    JOINT LeftShoulder
    {
      OFFSET -0.000 48.160 0.000
      CHANNELS 6 Xposition Yposition Zposition Zrotation Xrotation Yrotation
      JOINT LeftArm
      {
        OFFSET 27.761 0.000 -0.000
        CHANNELS 6 Xposition Yposition Zposition Zrotation Xrotation Yrotation
        JOINT LeftForeArm
        {
          OFFSET 24.383 0.000 0.000
          CHANNELS 6 Xposition Yposition Zposition Zrotation Xrotation Yrotation
          JOINT LeftHand
          {
            OFFSET 24.414 0.000 -0.000
            CHANNELS 6 Xposition Yposition Zposition Zrotation Xrotation Yrotation
            JOINT LeftHandThumb1
            {
            OFFSET 4.970 -0.620 3.390
            CHANNELS 6 Xposition Yposition Zposition Zrotation Xrotation Yrotation
              JOINT LeftHandThumb2
              {
              OFFSET 2.150 -0.000 0.000
              CHANNELS 6 Xposition Yposition Zposition Zrotation Xrotation Yrotation
                JOINT LeftHandThumb3
                {
                OFFSET 2.200 -0.000 0.000
                CHANNELS 6 Xposition Yposition Zposition Zrotation Xrotation Yrotation
                  JOINT LeftHandThumb4
                  {
                  OFFSET 1.700 -0.000 0.000
                  CHANNELS 6 Xposition Yposition Zposition Zrotation Xrotation Yrotation
                  }
                }
              }
            }
            JOINT LeftHandIndex1
            {
            OFFSET 8.730 0.680 2.070
            CHANNELS 6 Xposition Yposition Zposition Zrotation Xrotation Yrotation
              JOINT LeftHandIndex2
              {
              OFFSET 2.670 -0.000 0.000
              CHANNELS 6 Xposition Yposition Zposition Zrotation Xrotation Yrotation
                JOINT LeftHandIndex3
                {
                OFFSET 2.130 -0.000 0.000
                CHANNELS 6 Xposition Yposition Zposition Zrotation Xrotation Yrotation
                  JOINT LeftHandIndex4
                  {
                  OFFSET 1.800 -0.000 0.000
                  CHANNELS 6 Xposition Yposition Zposition Zrotation Xrotation Yrotation
                  }
                }
              }
            }
            JOINT LeftHandMiddle1
            {
            OFFSET 9.220 0.670 0.550
            CHANNELS 6 Xposition Yposition Zposition Zrotation Xrotation Yrotation
              JOINT LeftHandMiddle2
              {
              OFFSET 2.660 -0.000 0.000
              CHANNELS 6 Xposition Yposition Zposition Zrotation Xrotation Yrotation
                JOINT LeftHandMiddle3
                {
                OFFSET 2.280 -0.000 0.000
                CHANNELS 6 Xposition Yposition Zposition Zrotation Xrotation Yrotation
                  JOINT LeftHandMiddle4
                  {
                  OFFSET 1.500 -0.000 0.000
                  CHANNELS 6 Xposition Yposition Zposition Zrotation Xrotation Yrotation
                  }
                }
              }
            }
            JOINT LeftHandRing1
            {
            OFFSET 9.250 0.670 -1.130
            CHANNELS 6 Xposition Yposition Zposition Zrotation Xrotation Yrotation
              JOINT LeftHandRing2
              {
              OFFSET 2.470 -0.000 0.000
              CHANNELS 6 Xposition Yposition Zposition Zrotation Xrotation Yrotation
                JOINT LeftHandRing3
                {
                OFFSET 2.210 -0.000 0.000
                CHANNELS 6 Xposition Yposition Zposition Zrotation Xrotation Yrotation
                  JOINT LeftHandRing4
                  {
                  OFFSET 1.800 -0.000 0.000
                  CHANNELS 6 Xposition Yposition Zposition Zrotation Xrotation Yrotation
                  }
                }
              }
            }
            JOINT LeftHandPinky1
            {
            OFFSET 9.350 0.660 -2.720
            CHANNELS 6 Xposition Yposition Zposition Zrotation Xrotation Yrotation
              JOINT LeftHandPinky2
              {
              OFFSET 1.630 -0.000 0.000
              CHANNELS 6 Xposition Yposition Zposition Zrotation Xrotation Yrotation
                JOINT LeftHandPinky3
                {
                OFFSET 1.710 -0.000 0.000
                CHANNELS 6 Xposition Yposition Zposition Zrotation Xrotation Yrotation
                  JOINT LeftHandPinky4
                  {
                  OFFSET 1.800 -0.000 0.000
                  CHANNELS 6 Xposition Yposition Zposition Zrotation Xrotation Yrotation
                  }
                }
              }
            }
          }
        }
      }
    }
    JOINT RightShoulder
    {
      OFFSET -0.000 48.160 0.000
      CHANNELS 6 Xposition Yposition Zposition Zrotation Xrotation Yrotation
      JOINT RightArm
      {
        OFFSET -28.693 0.000 -0.000
        CHANNELS 6 Xposition Yposition Zposition Zrotation Xrotation Yrotation
        JOINT RightForeArm
        {
          OFFSET -24.798 0.000 0.000
          CHANNELS 6 Xposition Yposition Zposition Zrotation Xrotation Yrotation
          JOINT RightHand
          {
            OFFSET -25.728 0.000 -0.000
            CHANNELS 6 Xposition Yposition Zposition Zrotation Xrotation Yrotation
            JOINT RightHandThumb1
            {
            OFFSET -4.970 -0.620 3.390
            CHANNELS 6 Xposition Yposition Zposition Zrotation Xrotation Yrotation
              JOINT RightHandThumb2
              {
              OFFSET -2.150 0.000 0.000
              CHANNELS 6 Xposition Yposition Zposition Zrotation Xrotation Yrotation
                JOINT RightHandThumb3
                {
                OFFSET -2.200 0.000 0.000
                CHANNELS 6 Xposition Yposition Zposition Zrotation Xrotation Yrotation
                  JOINT RightHandThumb4
                  {
                  OFFSET -1.700 0.000 0.000
                  CHANNELS 6 Xposition Yposition Zposition Zrotation Xrotation Yrotation
                  }
                }
              }
            }
            JOINT RightHandIndex1
            {
            OFFSET -8.730 0.680 2.070
            CHANNELS 6 Xposition Yposition Zposition Zrotation Xrotation Yrotation
              JOINT RightHandIndex2
              {
              OFFSET -2.670 0.000 0.000
              CHANNELS 6 Xposition Yposition Zposition Zrotation Xrotation Yrotation
                JOINT RightHandIndex3
                {
                OFFSET -2.130 0.000 0.000
                CHANNELS 6 Xposition Yposition Zposition Zrotation Xrotation Yrotation
                  JOINT RightHandIndex4
                  {
                  OFFSET -1.800 0.000 0.000
                  CHANNELS 6 Xposition Yposition Zposition Zrotation Xrotation Yrotation
                  }
                }
              }
            }
            JOINT RightHandMiddle1
            {
            OFFSET -9.220 0.670 0.550
            CHANNELS 6 Xposition Yposition Zposition Zrotation Xrotation Yrotation
              JOINT RightHandMiddle2
              {
              OFFSET -2.660 0.000 0.000
              CHANNELS 6 Xposition Yposition Zposition Zrotation Xrotation Yrotation
                JOINT RightHandMiddle3
                {
                OFFSET -2.280 0.000 0.000
                CHANNELS 6 Xposition Yposition Zposition Zrotation Xrotation Yrotation
                  JOINT RightHandMiddle4
                  {
                  OFFSET -1.500 0.000 0.000
                  CHANNELS 6 Xposition Yposition Zposition Zrotation Xrotation Yrotation
                  }
                }
              }
            }
            JOINT RightHandRing1
            {
            OFFSET -9.250 0.670 -1.130
            CHANNELS 6 Xposition Yposition Zposition Zrotation Xrotation Yrotation
              JOINT RightHandRing2
              {
              OFFSET -2.470 0.000 0.000
              CHANNELS 6 Xposition Yposition Zposition Zrotation Xrotation Yrotation
                JOINT RightHandRing3
                {
                OFFSET -2.210 0.000 0.000
                CHANNELS 6 Xposition Yposition Zposition Zrotation Xrotation Yrotation
                  JOINT RightHandRing4
                  {
                  OFFSET -1.800 0.000 0.000
                  CHANNELS 6 Xposition Yposition Zposition Zrotation Xrotation Yrotation
                  }
                }
              }
            }
            JOINT RightHandPinky1
            {
            OFFSET -9.350 0.660 -2.720
            CHANNELS 6 Xposition Yposition Zposition Zrotation Xrotation Yrotation
              JOINT RightHandPinky2
              {
              OFFSET -1.630 0.000 0.000
              CHANNELS 6 Xposition Yposition Zposition Zrotation Xrotation Yrotation
                JOINT RightHandPinky3
                {
                OFFSET -1.710 0.000 0.000
                CHANNELS 6 Xposition Yposition Zposition Zrotation Xrotation Yrotation
                  JOINT RightHandPinky4
                  {
                  OFFSET -1.800 0.000 0.000
                  CHANNELS 6 Xposition Yposition Zposition Zrotation Xrotation Yrotation
                  }
                }
              }
            }
          }
        }
      }
    }
    JOINT Neck
    {
      OFFSET -0.000 48.160 0.000
      CHANNELS 6 Xposition Yposition Zposition Zrotation Xrotation Yrotation
      JOINT Head
      {
        OFFSET -0.000 4.879 -0.000
        CHANNELS 6 Xposition Yposition Zposition Zrotation Xrotation Yrotation
        End Site
        {
          OFFSET -0.000 0.020 -0.000
        }
      }
    }
  }
}
MOTION
Frames:	5
Frame Time:	0.0333333
4.23698 49.9248 -265.498 0.933782 14.9897 -4.79918 7.79934 -6.82511 2.80941 3.50551 -7.61901 -0.108176 2.98023e-06 -51.1997 0 -4.55448 3.98884 0.317485 2.98023e-06 -40.4378 -2.38419e-05 9.28022 -22.2668 8.54442 -7.67551 -7.09254 2.68915 -1.4129 -4.67955 -0.64044 5.96046e-06 -51.2597 0 2.70789 -0.244183 0.01155 -2.98023e-06 -39.1936 0 -7.9073 -15.3144 -6.54696 0 5.97112 -5.97115 -0.130223 -14.6654 -0.0400499 -7.45058e-06 48.1607 -4.76837e-05 -52.5676 1.15259e-05 -6.59283 27.7179 0 0 -26.222 41.5462 3.17822 24.6546 0 3.57628e-05 1.04233e-05 5.12264e-06 -27.8057 27.9679 -2.38419e-05 0 -7.68166 0.0142488 -0.641513 0.0062 0.0497 0.0339 0 0 0 0 0.0215 0 0 0 0 0 0.022 0 0 0 0 0 0.017 0 0 0 0 -0.0068 0.0873 0.0207 0 0 0 0 0.0267 0 0 0 0 0 0.0213 0 0 0 0 0 0.018 0 0 0 0 -0.0067 0.0922 0.0055 0 0 0 0 0.0266 0 0 0 0 0 0.0228 0 0 0 0 0 0.015 0 0 0 0 -0.0067 0.0925 -0.0113 0 0 0 0 0.0247 0 0 0 0 0 0.0221 0 0 0 0 0 0.018 0 0 0 0 -0.0066 0.0935 -0.0272 0 0 0 0 0.0163 0 0 0 0 0 0.0171 0 0 0 0 0 0.018 0 0 0 0 -7.45058e-06 48.1607 -4.76837e-05 53.1719 -4.05543e-06 6.62542 -27.5822 0 -7.15256e-05 25.6215 44.6822 -2.59997 -24.0457 5.96046e-05 4.76837e-05 1.28185e-06 8.53774e-06 27.8565 -27.5875 -2.38419e-05 0 12.5115 -0.0792491 0.819399 -0.0062 0.0497 0.0339 0 0 0 0 0.0215 0 0 0 0 0 0.022 0 0 0 0 0 0.017 0 0 0 0 0.0068 0.0873 0.0207 0 0 0 0 0.0267 0 0 0 0 0 0.0213 0 0 0 0 0 0.018 0 0 0 0 0.0067 0.0922 0.0055 0 0 0 0 0.0266 0 0 0 0 0 0.0228 0 0 0 0 0 0.015 0 0 0 0 0.0067 0.0925 -0.0113 0 0 0 0 0.0247 0 0 0 0 0 0.0221 0 0 0 0 0 0.018 0 0 0 0 0.0066 0.0935 -0.0272 0 0 0 0 0.0163 0 0 0 0 0 0.0171 0 0 0 0 0 0.018 0 0 0 0 -7.45058e-06 48.1607 -4.76837e-05 -10.6941 80.0118 10.5357 -2.23517e-06 13.6415 1.19209e-05 1.04587e-05 -9.39151e-06 1.06722e-07 
4.51041 49.9177 -265.59 0.46661 14.0588 -4.19997 7.76238 -6.88024 2.72715 3.81218 -6.70399 -0.479671 -5.96046e-06 -51.0663 9.53674e-05 -4.78617 3.8022 0.318121 0 -40.5394 -9.53674e-05 9.28157 -22.2231 8.53998 -7.6565 -7.11223 2.50406 -1.17991 -3.83689 -0.964238 0 -51.2795 0 2.61895 -0.141032 0.00644985 -2.98023e-06 -39.3024 0 -7.9525 -15.5527 -6.60734 2.98023e-06 6.0332 -6.03325 -0.257332 -13.3853 0.0194861 -4.47035e-06 48.1607 -2.38419e-05 -52.3558 1.19528e-05 -6.63288 27.722 0 -2.38419e-05 -26.4954 42.8936 4.08049 24.2337 -2.38419e-05 3.57628e-05 1.8683e-06 3.41509e-06 -28.6818 28.0543 -3.57628e-05 -1.19209e-05 -6.84704 0.0296045 -1.25765 0.0062 0.0497 0.0339 0 0 0 0 0.0215 0 0 0 0 0 0.022 0 0 0 0 0 0.017 0 0 0 0 -0.0068 0.0873 0.0207 0 0 0 0 0.0267 0 0 0 0 0 0.0213 0 0 0 0 0 0.018 0 0 0 0 -0.0067 0.0922 0.0055 0 0 0 0 0.0266 0 0 0 0 0 0.0228 0 0 0 0 0 0.015 0 0 0 0 -0.0067 0.0925 -0.0113 0 0 0 0 0.0247 0 0 0 0 0 0.0221 0 0 0 0 0 0.018 0 0 0 0 -0.0066 0.0935 -0.0272 0 0 0 0 0.0163 0 0 0 0 0 0.0171 0 0 0 0 0 0.018 0 0 0 0 -4.47035e-06 48.1607 -2.38419e-05 53.487 -4.48231e-06 6.66535 -27.5875 0 7.15256e-05 25.5719 45.1006 -3.45259 -24.779 1.19209e-05 0 -7.29293e-07 3.41509e-06 26.206 -27.0988 -2.38419e-05 -3.57628e-05 12.6831 -0.151257 -1.42011 -0.0062 0.0497 0.0339 0 0 0 0 0.0215 0 0 0 0 0 0.022 0 0 0 0 0 0.017 0 0 0 0 0.0068 0.0873 0.0207 0 0 0 0 0.0267 0 0 0 0 0 0.0213 0 0 0 0 0 0.018 0 0 0 0 0.0067 0.0922 0.0055 0 0 0 0 0.0266 0 0 0 0 0 0.0228 0 0 0 0 0 0.015 0 0 0 0 0.0067 0.0925 -0.0113 0 0 0 0 0.0247 0 0 0 0 0 0.0221 0 0 0 0 0 0.018 0 0 0 0 0.0066 0.0935 -0.0272 0 0 0 0 0.0163 0 0 0 0 0 0.0171 0 0 0 0 0 0.018 0 0 0 0 -4.47035e-06 48.1607 -2.38419e-05 5.99425 79.3651 -5.89201 0 13.5745 1.19209e-05 9.8184e-06 -1.02453e-05 -5.33609e-08 
4.51041 49.9177 -265.59 0.46661 14.0588 -4.19997 7.76238 -6.88024 2.72715 3.81218 -6.70399 -0.479671 -5.96046e-06 -51.0663 9.53674e-05 -4.78617 3.8022 0.318121 0 -40.5394 -9.53674e-05 9.28157 -22.2231 8.53998 -7.6565 -7.11223 2.50406 -1.17991 -3.83689 -0.964238 0 -51.2795 0 2.61895 -0.141032 0.00644985 -2.98023e-06 -39.3024 0 -7.9525 -15.5527 -6.60734 2.98023e-06 6.0332 -6.03325 -0.257332 -13.3853 0.0194861 -4.47035e-06 48.1607 -2.38419e-05 -52.3558 1.19528e-05 -6.63288 27.722 0 -2.38419e-05 -26.4954 42.8936 4.08049 24.2337 -2.38419e-05 3.57628e-05 1.8683e-06 3.41509e-06 -28.6818 28.0543 -3.57628e-05 -1.19209e-05 -6.84704 0.0296045 -1.25765 0.0062 0.0497 0.0339 0 0 0 0 0.0215 0 0 0 0 0 0.022 0 0 0 0 0 0.017 0 0 0 0 -0.0068 0.0873 0.0207 0 0 0 0 0.0267 0 0 0 0 0 0.0213 0 0 0 0 0 0.018 0 0 0 0 -0.0067 0.0922 0.0055 0 0 0 0 0.0266 0 0 0 0 0 0.0228 0 0 0 0 0 0.015 0 0 0 0 -0.0067 0.0925 -0.0113 0 0 0 0 0.0247 0 0 0 0 0 0.0221 0 0 0 0 0 0.018 0 0 0 0 -0.0066 0.0935 -0.0272 0 0 0 0 0.0163 0 0 0 0 0 0.0171 0 0 0 0 0 0.018 0 0 0 0 -4.47035e-06 48.1607 -2.38419e-05 53.487 -4.48231e-06 6.66535 -27.5875 0 7.15256e-05 25.5719 45.1006 -3.45259 -24.779 1.19209e-05 0 -7.29293e-07 3.41509e-06 26.206 -27.0988 -2.38419e-05 -3.57628e-05 12.6831 -0.151257 -1.42011 -0.0062 0.0497 0.0339 0 0 0 0 0.0215 0 0 0 0 0 0.022 0 0 0 0 0 0.017 0 0 0 0 0.0068 0.0873 0.0207 0 0 0 0 0.0267 0 0 0 0 0 0.0213 0 0 0 0 0 0.018 0 0 0 0 0.0067 0.0922 0.0055 0 0 0 0 0.0266 0 0 0 0 0 0.0228 0 0 0 0 0 0.015 0 0 0 0 0.0067 0.0925 -0.0113 0 0 0 0 0.0247 0 0 0 0 0 0.0221 0 0 0 0 0 0.018 0 0 0 0 0.0066 0.0935 -0.0272 0 0 0 0 0.0163 0 0 0 0 0 0.0171 0 0 0 0 0 0.018 0 0 0 0 -4.47035e-06 48.1607 -2.38419e-05 5.99425 79.3651 -5.89201 0 13.5745 1.19209e-05 9.8184e-06 -1.02453e-05 -5.33609e-08 
4.71605 49.9268 -265.675 0.120476 13.6068 -3.76848 7.73889 -6.91886 2.68905 4.08024 -6.32425 -0.724851 2.23517e-06 -50.9339 -2.38419e-05 -4.96498 3.7727 0.327503 0 -40.6225 -2.38419e-05 9.19997 -22.1187 8.45213 -7.6536 -7.1304 2.39542 -0.995306 -3.49408 -1.19987 0 -51.297 0 2.61497 -0.050055 0.00228598 -5.96046e-06 -39.3873 -4.76837e-05 -8.16383 -15.7003 -6.79852 0 6.0618 -6.0617 -0.450416 -12.579 0.0680616 -4.47035e-06 48.1607 0 -52.1426 1.17394e-05 -6.4708 27.6765 1.19209e-05 -4.76837e-05 -26.3282 43.6429 3.95325 24.0193 1.19209e-05 2.38419e-05 5.03442e-06 -8.53774e-06 -28.947 28.0756 4.76837e-05 3.57628e-05 -5.93988 0.0455145 -1.90912 0.0062 0.0497 0.0339 0 0 0 0 0.0215 0 0 0 0 0 0.022 0 0 0 0 0 0.017 0 0 0 0 -0.0068 0.0873 0.0207 0 0 0 0 0.0267 0 0 0 0 0 0.0213 0 0 0 0 0 0.018 0 0 0 0 -0.0067 0.0922 0.0055 0 0 0 0 0.0266 0 0 0 0 0 0.0228 0 0 0 0 0 0.015 0 0 0 0 -0.0067 0.0925 -0.0113 0 0 0 0 0.0247 0 0 0 0 0 0.0221 0 0 0 0 0 0.018 0 0 0 0 -0.0066 0.0935 -0.0272 0 0 0 0 0.0163 0 0 0 0 0 0.0171 0 0 0 0 0 0.018 0 0 0 0 -4.47035e-06 48.1607 0 53.5523 -4.48231e-06 6.47142 -27.6739 5.96046e-06 2.38419e-05 25.5545 45.159 -3.73897 -25.2196 1.19209e-05 0 -1.37618e-07 -1.70755e-06 25.2854 -26.866 -4.76837e-05 -2.38419e-05 12.7323 -0.152249 -2.33756 -0.0062 0.0497 0.0339 0 0 0 0 0.0215 0 0 0 0 0 0.022 0 0 0 0 0 0.017 0 0 0 0 0.0068 0.0873 0.0207 0 0 0 0 0.0267 0 0 0 0 0 0.0213 0 0 0 0 0 0.018 0 0 0 0 0.0067 0.0922 0.0055 0 0 0 0 0.0266 0 0 0 0 0 0.0228 0 0 0 0 0 0.015 0 0 0 0 0.0067 0.0925 -0.0113 0 0 0 0 0.0247 0 0 0 0 0 0.0221 0 0 0 0 0 0.018 0 0 0 0 0.0066 0.0935 -0.0272 0 0 0 0 0.0163 0 0 0 0 0 0.0171 0 0 0 0 0 0.018 0 0 0 0 -4.47035e-06 48.1607 0 19.5538 78.1674 -19.1689 2.98023e-06 13.3643 1.19209e-05 1.19528e-05 -1.10991e-05 3.20165e-07 
5.03922 49.9441 -265.839 -0.381641 13.3039 -3.46789 7.70037 -6.95494 2.65474 4.51216 -6.13758 -0.924295 1.49012e-06 -50.7646 0 -5.18723 3.79581 0.344336 -2.98023e-06 -40.7169 -4.76837e-05 9.1389 -21.9966 8.38125 -7.63345 -7.14638 2.29728 -0.732334 -3.50983 -1.42192 0 -51.2507 -4.76837e-05 2.72579 0.37722 -0.0179599 -2.98023e-06 -39.6408 0 -8.47158 -15.933 -7.08213 -7.45058e-07 6.08875 -6.08876 -0.590172 -11.8506 0.190359 -3.72529e-06 48.1607 0 -52.0899 1.25932e-05 -6.42028 27.5794 -1.78814e-05 2.38419e-05 -25.8471 42.6128 4.09478 23.7481 2.38419e-05 4.76837e-05 5.79913e-06 0 -27.9512 26.5994 2.38419e-05 -3.57628e-05 -5.06129 0.0713421 -3.77643 0.0062 0.0497 0.0339 0 0 0 0 0.0215 0 0 0 0 0 0.022 0 0 0 0 0 0.017 0 0 0 0 -0.0068 0.0873 0.0207 0 0 0 0 0.0267 0 0 0 0 0 0.0213 0 0 0 0 0 0.018 0 0 0 0 -0.0067 0.0922 0.0055 0 0 0 0 0.0266 0 0 0 0 0 0.0228 0 0 0 0 0 0.015 0 0 0 0 -0.0067 0.0925 -0.0113 0 0 0 0 0.0247 0 0 0 0 0 0.0221 0 0 0 0 0 0.018 0 0 0 0 -0.0066 0.0935 -0.0272 0 0 0 0 0.0163 0 0 0 0 0 0.0171 0 0 0 0 0 0.018 0 0 0 0 -3.72529e-06 48.1607 0 53.5641 -4.80248e-06 6.36699 -27.8092 -2.98023e-05 -2.38419e-05 25.746 45.6371 -4.59545 -25.6452 1.19209e-05 2.38419e-05 2.35226e-06 5.12264e-06 24.5635 -26.7338 1.19209e-05 -2.38419e-05 12.7618 -0.132287 -3.1024 -0.0062 0.0497 0.0339 0 0 0 0 0.0215 0 0 0 0 0 0.022 0 0 0 0 0 0.017 0 0 0 0 0.0068 0.0873 0.0207 0 0 0 0 0.0267 0 0 0 0 0 0.0213 0 0 0 0 0 0.018 0 0 0 0 0.0067 0.0922 0.0055 0 0 0 0 0.0266 0 0 0 0 0 0.0228 0 0 0 0 0 0.015 0 0 0 0 0.0067 0.0925 -0.0113 0 0 0 0 0.0247 0 0 0 0 0 0.0221 0 0 0 0 0 0.018 0 0 0 0 0.0066 0.0935 -0.0272 0 0 0 0 0.0163 0 0 0 0 0 0.0171 0 0 0 0 0 0.018 0 0 0 0 -3.72529e-06 48.1607 0 33.9598 75.9375 -33.1568 0 13.2972 2.38419e-05 1.19528e-05 -1.28066e-05 -6.4033e-07 
